<svg width="76" height="76" viewBox="0 0 76 76" fill="none" xmlns="http://www.w3.org/2000/svg">
<path d="M60.1673 12.6667H53.834V9.5C53.834 8.66014 53.5004 7.85469 52.9065 7.26082C52.3126 6.66696 51.5072 6.33333 50.6673 6.33333C49.8275 6.33333 49.022 6.66696 48.4282 7.26082C47.8343 7.85469 47.5007 8.66014 47.5007 9.5V12.6667H28.5007V9.5C28.5007 8.66014 28.167 7.85469 27.5732 7.26082C26.9793 6.66696 26.1738 6.33333 25.334 6.33333C24.4941 6.33333 23.6887 6.66696 23.0948 7.26082C22.5009 7.85469 22.1673 8.66014 22.1673 9.5V12.6667H15.834C13.3144 12.6667 10.8981 13.6676 9.11647 15.4491C7.33487 17.2307 6.33398 19.6471 6.33398 22.1667V60.1667C6.33398 62.6862 7.33487 65.1026 9.11647 66.8842C10.8981 68.6658 13.3144 69.6667 15.834 69.6667H60.1673C62.6869 69.6667 65.1032 68.6658 66.8848 66.8842C68.6664 65.1026 69.6673 62.6862 69.6673 60.1667V22.1667C69.6673 19.6471 68.6664 17.2307 66.8848 15.4491C65.1032 13.6676 62.6869 12.6667 60.1673 12.6667ZM63.334 60.1667C63.334 61.0065 63.0004 61.812 62.4065 62.4058C61.8126 62.9997 61.0072 63.3333 60.1673 63.3333H15.834C14.9941 63.3333 14.1887 62.9997 13.5948 62.4058C13.0009 61.812 12.6673 61.0065 12.6673 60.1667V38H63.334V60.1667ZM63.334 31.6667H12.6673V22.1667C12.6673 21.3268 13.0009 20.5214 13.5948 19.9275C14.1887 19.3336 14.9941 19 15.834 19H22.1673V22.1667C22.1673 23.0065 22.5009 23.812 23.0948 24.4058C23.6887 24.9997 24.4941 25.3333 25.334 25.3333C26.1738 25.3333 26.9793 24.9997 27.5732 24.4058C28.167 23.812 28.5007 23.0065 28.5007 22.1667V19H47.5007V22.1667C47.5007 23.0065 47.8343 23.812 48.4282 24.4058C49.022 24.9997 49.8275 25.3333 50.6673 25.3333C51.5072 25.3333 52.3126 24.9997 52.9065 24.4058C53.5004 23.812 53.834 23.0065 53.834 22.1667V19H60.1673C61.0072 19 61.8126 19.3336 62.4065 19.9275C63.0004 20.5214 63.334 21.3268 63.334 22.1667V31.6667Z" fill="#0095D9"/>
</svg>
