<svg width="76" height="76" viewBox="0 0 76 76" fill="none" xmlns="http://www.w3.org/2000/svg">
<path d="M3.16602 39.5833V55.4167C3.16602 56.2565 3.49965 57.062 4.09351 57.6558C4.68738 58.2497 5.49283 58.5833 6.33268 58.5833H9.49935C9.49935 61.1029 10.5002 63.5193 12.2818 65.3008C14.0634 67.0824 16.4798 68.0833 18.9993 68.0833C21.5189 68.0833 23.9353 67.0824 25.7169 65.3008C27.4985 63.5193 28.4993 61.1029 28.4993 58.5833H47.4993C47.4993 61.1029 48.5002 63.5193 50.2818 65.3008C52.0634 67.0824 54.4798 68.0833 56.9993 68.0833C59.5189 68.0833 61.9353 67.0824 63.7169 65.3008C65.4985 63.5193 66.4993 61.1029 66.4993 58.5833H69.666C70.5059 58.5833 71.3113 58.2497 71.9052 57.6558C72.4991 57.062 72.8327 56.2565 72.8327 55.4167V17.4167C72.8327 14.8971 71.8318 12.4808 70.0502 10.6992C68.2686 8.91756 65.8522 7.91667 63.3327 7.91667H34.8327C32.3131 7.91667 29.8968 8.91756 28.1152 10.6992C26.3336 12.4808 25.3327 14.8971 25.3327 17.4167V23.75H18.9993C17.5245 23.75 16.0699 24.0934 14.7508 24.7529C13.4317 25.4125 12.2842 26.3701 11.3993 27.55L3.79935 37.6833C3.70673 37.821 3.63223 37.97 3.57768 38.1267L3.38768 38.475C3.24792 38.8282 3.17284 39.2036 3.16602 39.5833ZM53.8327 58.5833C53.8327 57.957 54.0184 57.3448 54.3664 56.824C54.7143 56.3033 55.2089 55.8974 55.7875 55.6577C56.3661 55.418 57.0029 55.3553 57.6171 55.4775C58.2314 55.5997 58.7957 55.9013 59.2385 56.3442C59.6814 56.787 59.983 57.3513 60.1052 57.9655C60.2274 58.5798 60.1646 59.2165 59.925 59.7952C59.6853 60.3738 59.2794 60.8684 58.7587 61.2163C58.2379 61.5643 57.6257 61.75 56.9993 61.75C56.1595 61.75 55.354 61.4164 54.7602 60.8225C54.1663 60.2286 53.8327 59.4232 53.8327 58.5833ZM31.666 17.4167C31.666 16.5768 31.9996 15.7714 32.5935 15.1775C33.1874 14.5836 33.9928 14.25 34.8327 14.25H63.3327C64.1725 14.25 64.978 14.5836 65.5719 15.1775C66.1657 15.7714 66.4993 16.5768 66.4993 17.4167V52.25H64.0293C63.1389 51.2704 62.0536 50.4877 60.843 49.9521C59.6324 49.4164 58.3232 49.1398 56.9993 49.1398C55.6755 49.1398 54.3663 49.4164 53.1557 49.9521C51.9451 50.4877 50.8598 51.2704 49.9693 52.25H31.666V17.4167ZM25.3327 36.4167H12.666L16.466 31.35C16.761 30.9567 17.1435 30.6375 17.5832 30.4176C18.0229 30.1978 18.5077 30.0833 18.9993 30.0833H25.3327V36.4167ZM15.8327 58.5833C15.8327 57.957 16.0184 57.3448 16.3664 56.824C16.7143 56.3033 17.2089 55.8974 17.7875 55.6577C18.3662 55.418 19.0029 55.3553 19.6171 55.4775C20.2314 55.5997 20.7957 55.9013 21.2385 56.3442C21.6814 56.787 21.983 57.3513 22.1052 57.9655C22.2274 58.5798 22.1646 59.2165 21.925 59.7952C21.6853 60.3738 21.2794 60.8684 20.7587 61.2163C20.2379 61.5643 19.6257 61.75 18.9993 61.75C18.1595 61.75 17.354 61.4164 16.7602 60.8225C16.1663 60.2286 15.8327 59.4232 15.8327 58.5833ZM9.49935 42.75H25.3327V51.5533C23.4638 49.8831 21.0106 49.0191 18.5075 49.1496C16.0045 49.2801 13.6544 50.3945 11.9693 52.25H9.49935V42.75Z" fill="#0095D9"/>
</svg>
