<svg width="76" height="76" viewBox="0 0 76 76" fill="none" xmlns="http://www.w3.org/2000/svg">
<path d="M41.1662 34.8333H6.33284C5.49299 34.8333 4.68753 35.167 4.09367 35.7608C3.4998 36.3547 3.16617 37.1602 3.16617 38V66.5C3.16617 67.3399 3.4998 68.1453 4.09367 68.7392C4.68753 69.333 5.49299 69.6667 6.33284 69.6667H40.7228C40.8812 69.6667 41.0078 69.6667 41.1662 69.6667C42.006 69.6667 42.8115 69.333 43.4053 68.7392C43.9992 68.1453 44.3328 67.3399 44.3328 66.5V38C44.3328 37.1602 43.9992 36.3547 43.4053 35.7608C42.8115 35.167 42.006 34.8333 41.1662 34.8333ZM23.5595 63.3333L29.6712 57.2217C29.7578 57.091 29.8755 56.9839 30.0136 56.9097C30.1517 56.8356 30.3061 56.7968 30.4628 56.7968C30.6196 56.7968 30.7739 56.8356 30.9121 56.9097C31.0502 56.9839 31.1678 57.091 31.2545 57.2217L37.3345 63.3333H23.5595ZM37.9995 55.0367L35.7195 52.7883C34.2995 51.4314 32.4111 50.6742 30.447 50.6742C28.4829 50.6742 26.5945 51.4314 25.1745 52.7883L14.5978 63.3333H9.49951V41.1667H37.9995V55.0367ZM6.33284 13.015C6.88239 13.0149 7.42246 12.8718 7.89995 12.5997C8.37743 12.3277 8.7759 11.936 9.05617 11.4633C9.45885 10.8888 9.66946 10.2015 9.65784 9.5C9.65838 9.07049 9.57153 8.64535 9.40258 8.25045C9.23363 7.85556 8.98611 7.49916 8.67508 7.20294C8.36405 6.90672 7.99601 6.67687 7.59335 6.52737C7.19069 6.37788 6.76182 6.31186 6.33284 6.33334C5.49299 6.33334 4.68753 6.66697 4.09367 7.26083C3.4998 7.8547 3.16617 8.66015 3.16617 9.5V9.81667C3.16199 10.2352 3.24081 10.6504 3.39807 11.0382C3.55534 11.4261 3.78793 11.7789 4.0824 12.0763C4.37687 12.3738 4.72737 12.6098 5.11365 12.771C5.49993 12.9321 5.91431 13.015 6.33284 13.015ZM31.3812 12.6667H31.9828C32.8227 12.6667 33.6281 12.333 34.222 11.7392C34.8159 11.1453 35.1495 10.3399 35.1495 9.5C35.1495 8.66015 34.8159 7.8547 34.222 7.26083C33.6281 6.66697 32.8227 6.33334 31.9828 6.33334H31.3812C30.5413 6.33334 29.7359 6.66697 29.142 7.26083C28.5481 7.8547 28.2145 8.66015 28.2145 9.5C28.2145 10.3399 28.5481 11.1453 29.142 11.7392C29.7359 12.333 30.5413 12.6667 31.3812 12.6667ZM6.33284 27.8033C7.17269 27.8033 7.97815 27.4697 8.57201 26.8758C9.16588 26.282 9.49951 25.4765 9.49951 24.6367V23.94C9.49951 23.1002 9.16588 22.2947 8.57201 21.7008C7.97815 21.107 7.17269 20.7733 6.33284 20.7733C5.49299 20.7733 4.68753 21.107 4.09367 21.7008C3.4998 22.2947 3.16617 23.1002 3.16617 23.94V24.6367C3.16617 25.4765 3.4998 26.282 4.09367 26.8758C4.68753 27.4697 5.49299 27.8033 6.33284 27.8033ZM44.6178 6.33334H44.0162C43.1763 6.33334 42.3709 6.66697 41.777 7.26083C41.1831 7.8547 40.8495 8.66015 40.8495 9.5C40.8495 10.3399 41.1831 11.1453 41.777 11.7392C42.3709 12.333 43.1763 12.6667 44.0162 12.6667H44.6178C45.4577 12.6667 46.2631 12.333 46.857 11.7392C47.4509 11.1453 47.7845 10.3399 47.7845 9.5C47.7845 8.66015 47.4509 7.8547 46.857 7.26083C46.2631 6.66697 45.4577 6.33334 44.6178 6.33334ZM18.7145 12.6667H19.3162C20.156 12.6667 20.9615 12.333 21.5553 11.7392C22.1492 11.1453 22.4828 10.3399 22.4828 9.5C22.4828 8.66015 22.1492 7.8547 21.5553 7.26083C20.9615 6.66697 20.156 6.33334 19.3162 6.33334H18.7145C17.8747 6.33334 17.0692 6.66697 16.4753 7.26083C15.8815 7.8547 15.5478 8.66015 15.5478 9.5C15.5478 10.3399 15.8815 11.1453 16.4753 11.7392C17.0692 12.333 17.8747 12.6667 18.7145 12.6667ZM69.6662 20.2667C68.8263 20.2667 68.0209 20.6003 67.427 21.1942C66.8331 21.788 66.4995 22.5935 66.4995 23.4333V24.0983C66.4995 24.9382 66.8331 25.7436 67.427 26.3375C68.0209 26.9314 68.8263 27.265 69.6662 27.265C70.506 27.265 71.3115 26.9314 71.9053 26.3375C72.4992 25.7436 72.8328 24.9382 72.8328 24.0983V23.4333C72.8328 22.5935 72.4992 21.788 71.9053 21.1942C71.3115 20.6003 70.506 20.2667 69.6662 20.2667ZM54.2128 63.3333H53.4528C52.613 63.3333 51.8075 63.667 51.2137 64.2608C50.6198 64.8547 50.2862 65.6602 50.2862 66.5C50.2862 67.3399 50.6198 68.1453 51.2137 68.7392C51.8075 69.333 52.613 69.6667 53.4528 69.6667H54.2128C55.0527 69.6667 55.8581 69.333 56.452 68.7392C57.0459 68.1453 57.3795 67.3399 57.3795 66.5C57.3795 65.6602 57.0459 64.8547 56.452 64.2608C55.8581 63.667 55.0527 63.3333 54.2128 63.3333ZM69.3495 6.33334C68.5657 6.4121 67.8394 6.7802 67.3124 7.36575C66.7854 7.95129 66.4956 8.71224 66.4995 9.5C66.507 9.96111 66.615 10.415 66.8162 10.83C67.1078 11.4556 67.5958 11.9687 68.206 12.2914C68.8161 12.614 69.515 12.7285 70.1962 12.6173C70.8774 12.5062 71.5036 12.1755 71.9796 11.6757C72.4556 11.1758 72.7552 10.5342 72.8328 9.84834V9.5C72.7608 8.62933 72.3612 7.81838 71.7148 7.2307C71.0683 6.64303 70.2231 6.32234 69.3495 6.33334ZM69.6662 34.5167C68.8263 34.5167 68.0209 34.8503 67.427 35.4442C66.8331 36.038 66.4995 36.8435 66.4995 37.6833V38.38C66.4995 39.2199 66.8331 40.0253 67.427 40.6192C68.0209 41.213 68.8263 41.5467 69.6662 41.5467C70.506 41.5467 71.3115 41.213 71.9053 40.6192C72.4992 40.0253 72.8328 39.2199 72.8328 38.38V37.6833C72.8328 36.8435 72.4992 36.038 71.9053 35.4442C71.3115 34.8503 70.506 34.5167 69.6662 34.5167ZM57.2845 6.33334H56.6828C55.843 6.33334 55.0375 6.66697 54.4437 7.26083C53.8498 7.8547 53.5162 8.66015 53.5162 9.5C53.5162 10.3399 53.8498 11.1453 54.4437 11.7392C55.0375 12.333 55.843 12.6667 56.6828 12.6667H57.2845C58.1244 12.6667 58.9298 12.333 59.5237 11.7392C60.1175 11.1453 60.4512 10.3399 60.4512 9.5C60.4512 8.66015 60.1175 7.8547 59.5237 7.26083C58.9298 6.66697 58.1244 6.33334 57.2845 6.33334ZM69.6662 63.3333C69.1801 63.3327 68.7014 63.4524 68.2728 63.6817C67.7447 63.9404 67.299 64.3412 66.9858 64.8389C66.6726 65.3367 66.5042 65.9119 66.4995 66.5C66.4995 67.3399 66.8331 68.1453 67.427 68.7392C68.0209 69.333 68.8263 69.6667 69.6662 69.6667C70.5368 69.5946 71.3478 69.1951 71.9355 68.5486C72.5231 67.9022 72.8438 67.0569 72.8328 66.1833C72.7541 65.3995 72.386 64.6732 71.8004 64.1462C71.2149 63.6192 70.4539 63.3294 69.6662 63.3333ZM69.6662 48.8933C68.8263 48.8933 68.0209 49.227 67.427 49.8208C66.8331 50.4147 66.4995 51.2202 66.4995 52.06V52.7567C66.4995 53.5965 66.8331 54.402 67.427 54.9958C68.0209 55.5897 68.8263 55.9233 69.6662 55.9233C70.506 55.9233 71.3115 55.5897 71.9053 54.9958C72.4992 54.402 72.8328 53.5965 72.8328 52.7567V51.9333C72.8328 51.0935 72.4992 50.288 71.9053 49.6942C71.3115 49.1003 70.506 48.7667 69.6662 48.7667V48.8933Z" fill="#0095D9"/>
</svg>
