<svg width="76" height="76" viewBox="0 0 76 76" fill="none" xmlns="http://www.w3.org/2000/svg">
<path d="M60.1668 22.1667H57.0002V19C57.0002 16.4804 55.9993 14.0641 54.2177 12.2825C52.4361 10.5009 50.0197 9.5 47.5002 9.5H15.8335C13.3139 9.5 10.8976 10.5009 9.11598 12.2825C7.33439 14.0641 6.3335 16.4804 6.3335 19V57C6.3335 59.5196 7.33439 61.9359 9.11598 63.7175C10.8976 65.4991 13.3139 66.5 15.8335 66.5H60.1668C62.6864 66.5 65.1027 65.4991 66.8843 63.7175C68.6659 61.9359 69.6668 59.5196 69.6668 57V31.6667C69.6668 29.1471 68.6659 26.7307 66.8843 24.9492C65.1027 23.1676 62.6864 22.1667 60.1668 22.1667ZM15.8335 15.8333H47.5002C48.34 15.8333 49.1455 16.167 49.7393 16.7608C50.3332 17.3547 50.6668 18.1601 50.6668 19V22.1667H15.8335C14.9936 22.1667 14.1882 21.833 13.5943 21.2392C13.0005 20.6453 12.6668 19.8399 12.6668 19C12.6668 18.1601 13.0005 17.3547 13.5943 16.7608C14.1882 16.167 14.9936 15.8333 15.8335 15.8333ZM63.3335 47.5H60.1668C59.327 47.5 58.5215 47.1664 57.9277 46.5725C57.3338 45.9786 57.0002 45.1732 57.0002 44.3333C57.0002 43.4935 57.3338 42.688 57.9277 42.0942C58.5215 41.5003 59.327 41.1667 60.1668 41.1667H63.3335V47.5ZM63.3335 34.8333H60.1668C57.6473 34.8333 55.2309 35.8342 53.4493 37.6158C51.6677 39.3974 50.6668 41.8138 50.6668 44.3333C50.6668 46.8529 51.6677 49.2693 53.4493 51.0508C55.2309 52.8324 57.6473 53.8333 60.1668 53.8333H63.3335V57C63.3335 57.8399 62.9999 58.6453 62.406 59.2392C61.8121 59.833 61.0067 60.1667 60.1668 60.1667H15.8335C14.9936 60.1667 14.1882 59.833 13.5943 59.2392C13.0005 58.6453 12.6668 57.8399 12.6668 57V27.9617C13.6842 28.3196 14.755 28.5016 15.8335 28.5H60.1668C61.0067 28.5 61.8121 28.8336 62.406 29.4275C62.9999 30.0214 63.3335 30.8268 63.3335 31.6667V34.8333Z" fill="#0095D9"/>
</svg>
