<svg width="76" height="76" viewBox="0 0 76 76" fill="none" xmlns="http://www.w3.org/2000/svg">
<path d="M67.0385 6.52331C64.7686 6.13233 62.4701 5.93108 60.1669 5.92164C52.3083 5.9152 44.6137 8.16863 38.0002 12.4133C31.3697 8.22436 23.6762 6.02624 15.8335 6.07998C13.5302 6.08942 11.2317 6.29067 8.96185 6.68164C8.21834 6.80983 7.54503 7.19926 7.06316 7.77982C6.5813 8.36038 6.32255 9.09391 6.33352 9.84831V47.8483C6.32674 48.3136 6.42259 48.7747 6.61424 49.1987C6.8059 49.6227 7.08866 49.9993 7.4424 50.3017C7.79614 50.604 8.21217 50.8247 8.66088 50.948C9.10959 51.0713 9.57996 51.0941 10.0385 51.015C14.5764 50.2293 19.2257 50.3596 23.7124 51.3984C28.1991 52.4371 32.4326 54.3633 36.1635 57.0633L36.5435 57.285H36.8919C37.243 57.4313 37.6197 57.5066 38.0002 57.5066C38.3806 57.5066 38.7573 57.4313 39.1085 57.285H39.4569L39.8369 57.0633C43.5417 54.3029 47.7631 52.3144 52.2507 51.2156C56.7383 50.1168 61.4008 49.9301 65.9619 50.6666C66.4204 50.7458 66.8908 50.7229 67.3395 50.5996C67.7882 50.4763 68.2042 50.2557 68.558 49.9533C68.9117 49.651 69.1945 49.2744 69.3861 48.8504C69.5778 48.4263 69.6736 47.9653 69.6669 47.5V9.49998C69.6339 8.77846 69.3553 8.08989 68.8772 7.54848C68.3992 7.00707 67.7504 6.64534 67.0385 6.52331ZM34.8335 48.6083C28.9748 45.5262 22.4535 43.9176 15.8335 43.9216C14.7885 43.9216 13.7435 43.9216 12.6669 43.9216V12.255C13.7215 12.1942 14.7788 12.1942 15.8335 12.255C22.5892 12.2475 29.1975 14.23 34.8335 17.955V48.6083ZM63.3335 44.0483C62.2569 44.0483 61.2119 44.0483 60.1669 44.0483C53.5469 44.0442 47.0256 45.6528 41.1669 48.735V17.955C46.8028 14.23 53.4111 12.2475 60.1669 12.255C61.2215 12.1942 62.2788 12.1942 63.3335 12.255V44.0483ZM67.0385 57.19C64.7686 56.799 62.4701 56.5978 60.1669 56.5883C52.3083 56.5819 44.6137 58.8353 38.0002 63.08C31.3867 58.8353 23.692 56.5819 15.8335 56.5883C13.5302 56.5978 11.2317 56.799 8.96185 57.19C8.54964 57.2554 8.15442 57.4016 7.79893 57.6203C7.44344 57.839 7.13469 58.1258 6.89043 58.4643C6.64617 58.8027 6.47122 59.1861 6.37565 59.5924C6.28007 59.9986 6.26576 60.4198 6.33352 60.8316C6.49445 61.654 6.97474 62.379 7.66919 62.8479C8.36364 63.3168 9.21563 63.4914 10.0385 63.3333C14.5764 62.5476 19.2257 62.678 23.7124 63.7167C28.1991 64.7555 32.4326 66.6816 36.1635 69.3816C36.6998 69.7635 37.3418 69.9687 38.0002 69.9687C38.6586 69.9687 39.3005 69.7635 39.8369 69.3816C43.5677 66.6816 47.8012 64.7555 52.288 63.7167C56.7747 62.678 61.424 62.5476 65.9619 63.3333C66.7847 63.4914 67.6367 63.3168 68.3312 62.8479C69.0256 62.379 69.5059 61.654 69.6669 60.8316C69.7346 60.4198 69.7203 59.9986 69.6247 59.5924C69.5291 59.1861 69.3542 58.8027 69.1099 58.4643C68.8657 58.1258 68.5569 57.839 68.2014 57.6203C67.8459 57.4016 67.4507 57.2554 67.0385 57.19Z" fill="#0095D9"/>
</svg>
