<svg width="76" height="76" viewBox="0 0 76 76" fill="none" xmlns="http://www.w3.org/2000/svg">
<path d="M7.91662 28.0566L36.4166 44.5233C36.898 44.8012 37.4441 44.9476 38 44.9476C38.5558 44.9476 39.1019 44.8012 39.5833 44.5233L68.0833 28.0566C68.5619 27.7803 68.9599 27.3836 69.2376 26.9058C69.5154 26.4281 69.6633 25.8859 69.6666 25.3333C69.6688 24.7753 69.5236 24.2266 69.2455 23.7428C68.9675 23.259 68.5665 22.8573 68.0833 22.5783L39.5833 6.14331C39.1019 5.86538 38.5558 5.71906 38 5.71906C37.4441 5.71906 36.898 5.86538 36.4166 6.14331L7.91662 22.5783C7.43337 22.8573 7.03243 23.259 6.75439 23.7428C6.47634 24.2266 6.33107 24.7753 6.33329 25.3333C6.33662 25.8859 6.48452 26.4281 6.76229 26.9058C7.04006 27.3836 7.43802 27.7803 7.91662 28.0566ZM38 12.6666L60.1666 25.3333L38 38L15.8333 25.3333L38 12.6666ZM64.9166 35.3716L38 50.6666L11.0833 35.245C10.7219 35.0356 10.3226 34.8998 9.90846 34.8454C9.49432 34.791 9.07352 34.819 8.67028 34.9279C8.26703 35.0368 7.88932 35.2244 7.55889 35.4799C7.22845 35.7354 6.95183 36.0538 6.74495 36.4166C6.33211 37.1438 6.2236 38.0047 6.4431 38.8115C6.66261 39.6183 7.1923 40.3056 7.91662 40.7233L36.4166 57.19C36.898 57.4679 37.4441 57.6142 38 57.6142C38.5558 57.6142 39.1019 57.4679 39.5833 57.19L68.0833 40.7233C68.8076 40.3056 69.3373 39.6183 69.5568 38.8115C69.7763 38.0047 69.6678 37.1438 69.255 36.4166C69.0481 36.0538 68.7715 35.7354 68.441 35.4799C68.1106 35.2244 67.7329 35.0368 67.3296 34.9279C66.9264 34.819 66.5056 34.791 66.0914 34.8454C65.6773 34.8998 65.278 35.0356 64.9166 35.245V35.3716ZM64.9166 48.0383L38 63.3333L11.0833 47.9116C10.7219 47.7023 10.3226 47.5665 9.90846 47.512C9.49432 47.4576 9.07352 47.4857 8.67028 47.5946C8.26703 47.7035 7.88932 47.8911 7.55889 48.1466C7.22845 48.4021 6.95183 48.7204 6.74495 49.0833C6.33211 49.8104 6.2236 50.6713 6.4431 51.4781C6.66261 52.285 7.1923 52.9722 7.91662 53.39L36.4166 69.8566C36.898 70.1346 37.4441 70.2809 38 70.2809C38.5558 70.2809 39.1019 70.1346 39.5833 69.8566L68.0833 53.39C68.8076 52.9722 69.3373 52.285 69.5568 51.4781C69.7763 50.6713 69.6678 49.8104 69.255 49.0833C69.0481 48.7204 68.7715 48.4021 68.441 48.1466C68.1106 47.8911 67.7329 47.7035 67.3296 47.5946C66.9264 47.4857 66.5056 47.4576 66.0914 47.512C65.6773 47.5665 65.278 47.7023 64.9166 47.9116V48.0383Z" fill="#0095D9"/>
</svg>
